<svg preserveAspectRatio="none" width="100%" height="100%" overflow="visible" style="display: block;" viewBox="0 0 43.8931 44.7662" fill="none" xmlns="http://www.w3.org/2000/svg">
<g id="Facebook">
<path id="Vector" d="M43.8931 22.46C43.8931 9.99932 34.1223 0 21.9465 0C9.77072 0 0 9.99932 0 22.46C0 33.69 7.96689 43.074 18.4892 44.7662V28.9211H12.9274V22.46H18.4892V17.5373C18.4892 11.8453 21.7962 8.76863 26.7567 8.76863C29.1618 8.76863 31.7172 9.23014 31.7172 9.23014V14.7682H29.0115C26.3058 14.7682 25.4039 16.4604 25.4039 18.3064V22.46H31.5669L30.665 28.9211H25.5542V44.6123C35.9262 43.074 43.8931 33.69 43.8931 22.46Z" fill="var(--fill-0, #262626)"/>
<path id="Vector_2" d="M27.7709 24.395L28.6728 17.9339H22.5097V13.7804C22.5097 11.9343 23.4116 10.2421 26.1174 10.2421H28.8231V4.70406C28.8231 4.70406 26.2677 4.24255 23.8626 4.24255C18.9021 4.24255 15.5951 7.31927 15.5951 13.0112V17.9339H10.1836V24.395H15.7454V40.0863C16.7976 40.2401 18.0002 40.3939 19.2027 40.3939C20.4053 40.3939 21.4575 40.2401 22.66 40.0863V24.395H27.7709Z" fill="var(--fill-0, #00D6FE)"/>
</g>
</svg>
