<svg preserveAspectRatio="none" width="100%" height="100%" overflow="visible" style="display: block;" viewBox="0 0 456 311" fill="none" xmlns="http://www.w3.org/2000/svg">
<g id="Frame 1171275371">
<path id="Vector" fill-rule="evenodd" clip-rule="evenodd" d="M333.475 103.599L313.947 207.199C312.116 217.094 306.217 221.941 296.452 221.941H134.526C124.762 221.941 120.694 217.094 122.728 207.199L142.257 103.599C144.088 93.7039 149.987 88.8571 159.751 88.8571H321.677C331.441 88.8571 335.51 93.7039 333.475 103.599ZM353.004 0H161.785C83.2637 0 38.5103 29.6864 27.322 88.8571L2.09742 222.143C-9.09092 281.314 24.4741 311 102.996 311H294.215C372.736 311 417.49 281.314 428.678 222.143L453.903 88.8571C465.091 29.6864 431.526 0 353.004 0Z" fill="var(--fill-0, #00D6FE)" fill-opacity="0.2"/>
</g>
</svg>
