<svg preserveAspectRatio="none" width="100%" height="100%" overflow="visible" style="display: block;" viewBox="0 0 173 167" fill="none" xmlns="http://www.w3.org/2000/svg">
<g id="Group 6">
<path id="Vector" fill-rule="evenodd" clip-rule="evenodd" d="M126.516 39.3078L119.107 78.6156C118.412 82.3701 116.174 84.2091 112.47 84.2091H51.0375C47.333 84.2091 45.7895 82.3701 46.5613 78.6156L53.9702 39.3078C54.6648 35.5532 56.9029 33.7143 60.6074 33.7143H122.04C125.744 33.7143 127.288 35.5532 126.516 39.3078ZM133.925 0H61.3791C31.5891 0 14.6103 11.2636 10.3656 33.7143L0.79573 84.2857C-3.44897 106.736 9.28512 118 39.0752 118H111.621C141.411 118 158.39 106.736 162.634 84.2857L172.204 33.7143C176.449 11.2636 163.715 0 133.925 0Z" fill="var(--fill-0, #00D6FE)" fill-opacity="0.2"/>
<path id="Vector_2" fill-rule="evenodd" clip-rule="evenodd" d="M142.906 116.317L138.11 141.634C137.66 144.052 136.211 145.236 133.813 145.236H94.0416C91.6433 145.236 90.6441 144.052 91.1437 141.634L95.9402 116.317C96.3899 113.899 97.8389 112.714 100.237 112.714H140.008C142.407 112.714 143.406 113.899 142.906 116.317ZM147.703 91H100.737C81.4507 91 70.4587 98.2545 67.7107 112.714L61.5152 145.286C58.7671 159.745 67.0112 167 86.2972 167H133.263C152.549 167 163.541 159.745 166.289 145.286L172.485 112.714C175.233 98.2545 166.989 91 147.703 91Z" fill="var(--fill-0, #00D6FE)" fill-opacity="0.15"/>
</g>
</svg>
