<svg preserveAspectRatio="none" width="100%" height="100%" overflow="visible" style="display: block;" viewBox="0 0 27.383 28.0185" fill="none" xmlns="http://www.w3.org/2000/svg">
<g id="Group">
<path id="Vector" d="M20.9347 4.77637C19.9684 4.77637 19.3242 5.43563 19.3242 6.42451C19.3242 7.4134 20.1295 8.07266 20.9347 8.07266C21.901 8.07266 22.5452 7.4134 22.5452 6.42451C22.5452 5.60044 21.901 4.77637 20.9347 4.77637Z" fill="var(--fill-0, #00D6FE)"/>
<path id="Vector_2" d="M13.8499 6.92285C10.1458 6.92285 7.08594 10.0543 7.08594 13.8451C7.08594 17.6358 10.1458 20.7673 13.8499 20.7673C17.554 20.7673 20.6139 17.6358 20.6139 13.8451C20.6139 10.0543 17.554 6.92285 13.8499 6.92285ZM13.8499 18.2951C11.4342 18.2951 9.50164 16.3173 9.50164 13.8451C9.50164 11.3729 11.4342 9.39507 13.8499 9.39507C16.2656 9.39507 18.1982 11.3729 18.1982 13.8451C18.1982 16.3173 16.2656 18.2951 13.8499 18.2951Z" fill="var(--fill-0, #00D6FE)"/>
<path id="Vector_3" d="M19.1646 28.0185H8.21339C3.70408 28.0185 0 24.2278 0 19.613V8.40555C0 3.79074 3.70408 0 8.21339 0H19.1646C23.6739 0 27.3779 3.79074 27.3779 8.40555V19.4481C27.539 24.2278 23.8349 28.0185 19.1646 28.0185ZM8.21339 2.47222C4.99245 2.47222 2.57675 5.10926 2.57675 8.24074V19.4481C2.57675 22.7444 5.1535 25.2167 8.21339 25.2167H19.1646C22.3855 25.2167 24.8012 22.5796 24.8012 19.4481V8.24074C24.8012 4.94444 22.2245 2.47222 19.1646 2.47222H8.21339V2.47222Z" fill="var(--fill-0, #00D6FE)"/>
</g>
</svg>
