<svg preserveAspectRatio="none" width="100%" height="100%" overflow="visible" style="display: block;" viewBox="0 0 27.6117 18.9" fill="none" xmlns="http://www.w3.org/2000/svg">
<path id="Vector" fill-rule="evenodd" clip-rule="evenodd" d="M20.3316 5.4C20.2209 6.00136 19.8643 7.56 19.274 7.56H15.72C11.3913 7.56 8.64895 8.34545 7.81272 10.8H7.75123L8.59976 6.29591C8.71044 5.69455 9.06707 5.4 9.65735 5.4H20.3316ZM27.6117 4.50409H27.5502C27.7346 1.50955 25.6687 0 21.34 0H9.78032C5.03349 0 2.32804 1.80409 1.65168 5.4L0.126794 13.5C-0.549568 17.0959 1.47952 18.9 6.22635 18.9H17.786C22.5328 18.9 25.2382 17.0959 25.9146 13.5H8.12016C7.52988 13.5 7.28393 13.2055 7.3946 12.6041L7.56677 11.7082H19.1264C23.8732 11.7082 26.5787 9.90409 27.255 6.30818L27.5994 4.50409H27.6117Z" fill="var(--fill-0, #02131D)"/>
</svg>
