<svg preserveAspectRatio="none" width="100%" height="100%" overflow="visible" style="display: block;" viewBox="0 0 27.5663 18.9" fill="none" xmlns="http://www.w3.org/2000/svg">
<path id="Vector" fill-rule="evenodd" clip-rule="evenodd" d="M20.1594 6.29591L18.9788 12.5918C18.8681 13.1932 18.5115 13.4877 17.9212 13.4877H8.13245C7.54217 13.4877 7.29623 13.1932 7.4192 12.5918L8.59976 6.29591C8.71043 5.69455 9.06706 5.4 9.65734 5.4H19.4461C20.0364 5.4 20.2824 5.69455 20.1594 6.29591ZM21.3399 0H9.78031C5.03349 0 2.32804 1.80409 1.65168 5.4L0.126794 13.5C-0.549568 17.0959 1.47952 18.9 6.22634 18.9H17.786C22.5328 18.9 25.2382 17.0959 25.9146 13.5L27.4395 5.4C28.1159 1.80409 26.0868 0 21.3399 0Z" fill="var(--fill-0, white)"/>
</svg>
