<svg width="173" height="27" viewBox="0 0 173 27" fill="none" xmlns="http://www.w3.org/2000/svg">
<g clip-path="url(#clip0_1548_18860)">
<path fill-rule="evenodd" clip-rule="evenodd" d="M24.3121 10.8H20.7704C16.0482 10.8 13.3428 12.6041 12.6664 16.2H24.1891C28.9114 16.2 31.6168 14.3959 32.2932 10.8L33.3016 5.4C33.9779 1.80409 31.9489 0 27.2266 0H5.06656L0 27C4.72223 27 7.42768 25.1959 8.10404 21.6L11.1415 5.4H25.3205C25.9108 5.4 26.1444 5.69455 26.0338 6.29591L25.3574 9.89182C25.2467 10.4932 24.8901 10.7877 24.2998 10.7877L24.3121 10.8Z" fill="#02131D"/>
<path fill-rule="evenodd" clip-rule="evenodd" d="M32.7969 27.0012C37.5437 27.0012 40.2491 25.1971 40.9255 21.6012L43.4711 8.1012H36.3508L32.7969 27.0012Z" fill="#02131D"/>
<path fill-rule="evenodd" clip-rule="evenodd" d="M37.8766 0H44.9969L43.9762 5.4H36.856L37.8766 0Z" fill="#02131D"/>
<path fill-rule="evenodd" clip-rule="evenodd" d="M42.2051 27.0012H50.2107L57.0481 21.4171L61.7827 27.0012H69.7883L61.7827 17.5512L73.3423 8.1012H68.8906C66.5172 8.1012 64.2791 8.99711 62.1885 10.8012L58.4992 13.6853L55.9291 10.8012C54.4903 8.99711 52.5842 8.1012 50.2107 8.1012H45.759L53.7647 17.5512L42.2051 27.0012Z" fill="#02131D"/>
<path fill-rule="evenodd" clip-rule="evenodd" d="M91.6782 13.5012C91.5676 14.1026 91.2109 15.6612 90.6207 15.6612H87.0667C82.738 15.6612 79.9956 16.4467 79.1594 18.9012H79.0979L79.9464 14.3971C80.0571 13.7957 80.4137 13.5012 81.004 13.5012H91.6782ZM98.9583 12.6053H98.8969C99.0813 9.61074 97.0153 8.1012 92.6866 8.1012H81.127C76.3802 8.1012 73.6747 9.90529 72.9984 13.5012L71.4735 21.6012C70.7971 25.1971 72.8262 27.0012 77.573 27.0012H89.1327C93.8795 27.0012 96.5849 25.1971 97.2613 21.6012H79.4668C78.8766 21.6012 78.6306 21.3067 78.7413 20.7053L78.9134 19.8094H90.4731C95.2199 19.8094 97.9254 18.0053 98.6017 14.4094L98.946 12.6053H98.9583Z" fill="#02131D"/>
<path fill-rule="evenodd" clip-rule="evenodd" d="M111.009 0C106.262 0 103.556 1.80409 102.88 5.4L98.8096 27H105.93L111.009 0Z" fill="#02131D"/>
<path fill-rule="evenodd" clip-rule="evenodd" d="M121.574 0C116.827 0 114.122 1.80409 113.445 5.4L109.375 27H116.495L121.574 0Z" fill="#02131D"/>
<path fill-rule="evenodd" clip-rule="evenodd" d="M140.694 14.3971L139.513 20.693C139.403 21.2944 139.046 21.5889 138.456 21.5889H128.667C128.077 21.5889 127.831 21.2944 127.954 20.693L129.134 14.3971C129.245 13.7957 129.602 13.5012 130.192 13.5012H139.981C140.571 13.5012 140.817 13.7957 140.694 14.3971ZM141.875 8.1012H130.315C125.568 8.1012 122.863 9.90529 122.186 13.5012L120.661 21.6012C119.985 25.1971 122.014 27.0012 126.761 27.0012H138.321C143.067 27.0012 145.773 25.1971 146.449 21.6012L147.974 13.5012C148.651 9.90529 146.621 8.1012 141.875 8.1012Z" fill="white"/>
<path fill-rule="evenodd" clip-rule="evenodd" d="M156.916 13.5L155.391 21.6C154.714 25.1959 156.743 27 161.49 27H168.611C169.287 23.4041 167.258 21.6 162.511 21.6L164.036 13.5C168.783 13.5 171.488 11.6959 172.165 8.1H165.044L165.548 5.4C166.225 1.80409 164.196 0 159.449 0L157.924 8.1C153.177 8.1 150.472 9.90409 149.795 13.5H156.916Z" fill="#02131D"/>
</g>
<defs>
<clipPath id="clip0_1548_18860">
<rect width="172.165" height="27" fill="white"/>
</clipPath>
</defs>
</svg>
