<svg preserveAspectRatio="none" width="100%" height="100%" overflow="visible" style="display: block;" viewBox="0 0 77.7056 53.2589" fill="none" xmlns="http://www.w3.org/2000/svg">
<path id="Vector" fill-rule="evenodd" clip-rule="evenodd" d="M56.8265 17.7414L53.4987 35.4829C53.1867 37.1775 52.1814 38.0075 50.5175 38.0075H22.9242C21.2603 38.0075 20.5671 37.1775 20.9137 35.4829L24.2415 17.7414C24.5535 16.0468 25.5588 15.2168 27.2227 15.2168H54.816C56.4799 15.2168 57.1732 16.0468 56.8265 17.7414ZM60.1544 0H27.5694C14.1887 0 6.56243 5.0838 4.65586 15.2168L0.357414 38.0421C-1.54916 48.1751 4.17055 53.2589 17.5512 53.2589H50.1362C63.5169 53.2589 71.1431 48.1751 73.0497 38.0421L77.3482 15.2168C79.2547 5.0838 73.535 0 60.1544 0Z" fill="var(--fill-0, #00D6FE)"/>
</svg>
