<svg preserveAspectRatio="none" width="100%" height="100%" overflow="visible" style="display: block;" viewBox="0 0 111.111 111.111" fill="none" xmlns="http://www.w3.org/2000/svg">
<g id="Icon">
<path id="Subtract" d="M55.5557 11.9048C80.1016 11.9048 99.9999 31.8032 100 56.3491C100 80.8951 80.1017 100.793 55.5557 100.793C31.0097 100.793 11.1113 80.8951 11.1113 56.3491C11.1114 31.8032 31.0098 11.9049 55.5557 11.9048ZM48.4521 42.2905C48.0819 42.0768 47.6185 42.3436 47.6182 42.771V68.3394C47.6182 68.767 48.0818 69.0346 48.4521 68.8208L70.5947 56.0366C70.9649 55.8228 70.9649 55.2886 70.5947 55.0747L48.4521 42.2905Z" fill="var(--fill-0, #00D6FE)"/>
<path id="Subtract_2" d="M56 8C82.5097 8 104 29.4903 104 56C104 82.5097 82.5097 104 56 104C29.4903 104 8 82.5097 8 56C8 29.4903 29.4903 8 56 8ZM48.2617 40.7783C47.8914 40.5645 47.4279 40.8312 47.4277 41.2588V69.0264C47.4277 69.454 47.8913 69.7216 48.2617 69.5078L72.3086 55.624C72.679 55.4102 72.679 54.8759 72.3086 54.6621L48.2617 40.7783Z" fill="var(--fill-0, #00D6FE)" fill-opacity="0.36"/>
</g>
</svg>
