<svg preserveAspectRatio="none" width="100%" height="100%" overflow="visible" style="display: block;" viewBox="0 0 47.0257 48.1259" fill="none" xmlns="http://www.w3.org/2000/svg">
<g id="Twitter">
<path id="Vector" d="M23.5128 48.1259C36.4986 48.1259 47.0257 37.3526 47.0257 24.063C47.0257 10.7734 36.4986 0 23.5128 0C10.527 0 0 10.7734 0 24.063C0 37.3526 10.527 48.1259 23.5128 48.1259Z" fill="var(--fill-0, #262626)"/>
<path id="Vector_2" d="M36.5597 15.8224C35.7545 16.1521 34.7882 16.4817 33.983 16.6465C34.4661 16.6465 34.9493 15.8224 35.2714 15.4928C35.5935 14.9983 35.9156 14.5039 36.0766 13.8446V13.6798H35.9156C34.9493 14.1743 33.983 14.6687 32.8557 14.8335C32.6946 14.8335 32.6946 14.8335 32.6946 14.8335C32.5336 14.6687 32.5336 14.6687 32.3725 14.5039C31.8894 14.1743 31.4062 13.8446 30.9231 13.515C30.2789 13.1854 29.4737 13.0206 28.6684 13.1854C27.8632 13.1854 27.219 13.515 26.5748 13.8446C25.9306 14.1743 25.2865 14.6687 24.8033 15.328C24.3202 15.9872 23.9981 16.6465 23.837 17.4706C23.676 18.2946 23.676 18.9539 23.837 19.778C23.837 19.9428 23.837 19.9428 23.676 19.9428C19.4888 19.2835 15.9457 17.8002 13.0469 14.5039C12.8859 14.3391 12.8859 14.3391 12.7248 14.5039C11.4364 16.4817 12.0806 19.4483 13.6911 20.9317C13.8521 21.0965 14.1742 21.2613 14.3353 21.5909C14.1742 21.5909 13.2079 21.4261 12.2417 20.9317C12.0806 20.9317 12.0806 20.9317 12.0806 21.0965C12.0806 21.2613 12.0806 21.4261 12.0806 21.7558C12.2417 23.7335 13.6911 25.5465 15.4626 26.2057C15.6237 26.3706 15.9457 26.3706 16.1068 26.3706C15.6237 26.5354 15.3016 26.5354 14.1742 26.3706C14.0132 26.3706 14.0132 26.3706 14.0132 26.5354C14.8184 29.0076 16.751 29.6669 18.2004 30.1613C18.3615 30.1613 18.5225 30.1613 18.8446 30.1613C18.3614 30.8206 16.751 31.4798 15.9457 31.6446C14.4963 32.1391 13.0469 32.3039 11.5975 32.1391C11.4364 32.1391 11.2754 32.1391 11.2754 32.1391V32.3039C11.5975 32.4687 11.9196 32.6335 12.2417 32.7983C13.2079 33.2928 14.1742 33.7872 15.1405 33.952C20.4551 35.4354 26.2527 34.2817 30.2789 30.3261C33.3388 27.1946 34.4661 22.9095 34.4661 18.4595C34.4661 18.2946 34.6272 18.1298 34.7882 18.1298C35.5935 17.4706 36.2376 16.8113 36.8818 15.9872C36.5597 16.152 36.5597 15.9872 36.5597 15.8224Z" fill="var(--fill-0, #00D6FE)"/>
</g>
</svg>
