<svg preserveAspectRatio="none" width="100%" height="100%" overflow="visible" style="display: block;" viewBox="0 0 256 175" fill="none" xmlns="http://www.w3.org/2000/svg">
<path id="Vector" fill-rule="evenodd" clip-rule="evenodd" d="M187.214 58.2955L176.251 116.591C175.223 122.159 171.911 124.886 166.429 124.886H75.5236C70.0419 124.886 67.7579 122.159 68.8999 116.591L79.8634 58.2955C80.8912 52.7273 84.2031 50 89.6849 50H180.591C186.072 50 188.356 52.7273 187.214 58.2955ZM198.178 0H90.8269C46.7445 0 21.6198 16.7045 15.3387 50L1.1775 125C-5.10367 158.295 13.7398 175 57.8222 175H165.173C209.255 175 234.38 158.295 240.661 125L254.823 50C261.104 16.7045 242.26 0 198.178 0Z" fill="var(--fill-0, white)" fill-opacity="0.1"/>
</svg>
